<?xml version="1.0" encoding="utf-8"?>
<!-- Generator: Adobe Illustrator 22.0.1, SVG Export Plug-In . SVG Version: 6.00 Build 0)  -->
<svg version="1.1" id="Layer_1" xmlns="http://www.w3.org/2000/svg" xmlns:xlink="http://www.w3.org/1999/xlink" x="0px" y="0px"
	 viewBox="0 0 600 600" style="enable-background:new 0 0 600 600;" xml:space="preserve">
<style type="text/css">
	.st0{fill:#F85D6D;}
</style>
<path class="st0" d="M471.1,355.8c7.4-6,11.5-12.5,11.5-19.2v-42.5c0-7.1-4.5-13.9-12.7-20.2c28-9.9,44.8-22.5,44.8-36.3V195
	c0-31.6-88.6-57.2-198-57.2s-198,25.6-198,57.2v42.5c0,7.1,4.5,13.9,12.7,20.2c-28,9.9-44.8,22.5-44.8,36.3v42.5
	c0,15.2,20.7,29.1,54.3,39.3c-7.4,6-11.5,12.5-11.5,19.2v42.5c0,31.6,88.6,57.2,198,57.2s198-25.6,198-57.2v-42.5
	C525.4,379.9,504.8,366,471.1,355.8z M316.7,149.1c99.8,0,180.6,19.6,180.6,43.9c0,24.2-80.9,43.9-180.6,43.9
	c-99.7,0-180.6-19.6-180.6-43.9C136.1,168.7,217,149.1,316.7,149.1z M104,292c0-10.2,14.5-19.6,38.6-27.1
	c33.5,17.8,98.9,29.9,174.1,29.9c54.4,0,103.6-6.3,139.4-16.6c5.9,4.3,9.1,8.9,9.1,13.8c0,24.2-80.9,43.9-180.6,43.9
	S104,316.2,104,292z M327.4,436.9c-99.7,0-180.6-19.6-180.6-43.9c0-4.6,2.9-9,8.3-13.2c34.7,8.7,80,14,129.5,14
	c76.1,0,142.1-12.4,175.2-30.6C489.7,371,508,381.5,508,393C508,417.3,427.2,436.9,327.4,436.9z"/>
</svg>
